<?xml version="1.0" encoding="utf-8"?>
<!-- Generator: Adobe Illustrator 23.0.6, SVG Export Plug-In . SVG Version: 6.00 Build 0)  -->
<svg version="1.1" id="Capa_1" xmlns="http://www.w3.org/2000/svg" xmlns:xlink="http://www.w3.org/1999/xlink" x="0px" y="0px"
 viewBox="0 0 264 167" style="enable-background:new 0 0 264 167;" xml:space="preserve">
<style type="text/css">
.st0{fill:#58A6FF;}
</style>
<path d="M325.2,734.6"/>
<g>
<path class="st0" d="M169.5,26.1c0,0-8.3-2.9-9.6-3c-1.4-0.1-7.3,0-8.4-0.4c-1.2-0.4-3.9-4-3.9-4s-7.6-9.4-32-11.1
c0,0,10.4-5.8,28.8,1.1C162.6,15.7,169.5,26.1,169.5,26.1z"/>
<path class="st0" d="M137.5,25.5c0,0-5.7,1.1-6.2,2.3s1.9,3.9,1.9,3.9s7.6,11.5,8,15.2c0,0-18-15.1-42.7-14.9
c-24.7,0.2-42.7,20.6-59.5,7.1c0,0,11.4,7.8,40.5-13.1S137.5,25.5,137.5,25.5z"/>
<path class="st0" d="M252.1,66.5c-0.4-0.2-10-5.6-10-5.6c-9.8-2.8-25.9-15.7-25.9-15.7s-8.4-7.4-23.3-9.3
c-14.8-1.9-25.6-6.2-29-8.1c-3.4-1.9-7.5-1.9-7.5-1.9s-14,1.9-17,2.7c-3.1,0.9-3.1,3.1-3.1,3.1c10.9,10.3,14,22.4,14.4,31.1
c-0.9,1.2-8.1,10.1-22.8,8.6c-15.7-1.6-37.1-24.1-71.6-23.1c-34.6,1-51.2,24.4-51.2,24.4S47.3,43.1,92.5,78
c21.8,16.8,42.9,19.3,57.4,14.7c-0.5,3.2-1.8,5.8-4.4,6.8c-34.1,13.5-64.3-10.7-81.1,14.7c0,0,10.9-10.6,38.7-0.9
c33.7,11.8,43.9,7.1,43.9,7.1s-2.3,4.4-16.6,6.1c-22.8,2.6-27.6-7.7-27.6-7.7s1,20.8,40,16.8c0,0-12.4,15.4-33.8,7.4
c0,0,11.1,16.2,44.2,0.6c0,0,0.3,14.5-16.3,17.6c0,0,14.5,5.1,36.9-17.6c0,0,0,8.5,10.7,9.7c0,0-7.2-6.4,3.1-20.5
c0.1-0.1,0.2-0.3,0.3-0.4l0.1,0.1c0,0,0.3-0.4,0.7-1.1c0.3-0.5,0.7-1,1-1.5c2.5-3.5,7.2-8.6,10.1-3.8c4.1,6.9-6.4,16.3-6.4,16.3
c35.9-8.6,36.3-22.1,36.3-22.1s-2-3.7-0.2-7.2c1.8-3.5,1.2-8.8,1.2-8.8s-2.3,3.2-5.2,6.1c-2.9,2.8-15.2,1.3-17.2,1
c-1.9-0.3-1.9-3.5-1.8-5.6c0.2-2,4-6.8,4-6.8c-3.6-2.7-6.8-11-6.8-11s-1.4-0.7,1.9-4.4c3.4-3.7,7.1-5.6,7.1-5.6
c-5,3.5-7.1,7.6-7.1,7.6s3.4,11,5.9,11.6c2.5,0.7,17.2,0,17.2,0c0.9,1.7,0,6.6,0,6.6c3.1-1.5,5.4-6.9,5.4-6.9l2.5-3.5l8.7-7.5
c-1.4-0.7-7.3-7-7.1-7c0,0,2.1-5.8,2.9-7c0.6-0.9,3.8-1.4,3.4-1.3c-0.9,0.3-2.5,1.9-2.5,1.9l-2.5,6.2c0,0,6.6,6.9,7.3,5.8
c1.4-2.1,6.6-12.4,6.6-12.4S252.5,66.7,252.1,66.5z M145,33.5c0.8-0.6,1.7-1.7,2.1-2.6c2.9,0.6,6.4,0.1,9.4,0.7
c1.4,0.3,1.9,5.6,1.9,5.6c-0.8,0-1.6,0.4-2.1,1c-0.5,0.5-0.6,1.2-0.8,1.9c-0.8,3.3-1.5,6.8-0.1,9.9C150.8,45.7,152,36.3,145,33.5z
 M212.1,63.4c-0.4,0.5-0.8,1.1-1.1,1.7c-1.2,0.2-2.5-0.5-2.9-1.6c-0.3-0.7-0.2-1.5-0.3-2.3s-0.5-1.4-0.8-2.1
c-0.8-1.6-1.7-3.3-2.5-4.9c-0.3-0.6-0.6-1.2-1-1.7c-0.3-0.4-0.8-0.7-1.2-1c-1.4-1.1-2.9-2.2-4.2-3.3l-0.5-1c0.2,0,0.4,0.1,0.5,0.2
c0.1-0.5,0.7-1,1.2-1c0.9-0.1,1.7,0.5,2.5,1c1.6,0.9,3.6,1,5.2,1.9c0.6,0.4,1.2,0.9,1.8,1.4c2.6,2.3,5.3,4.5,7.9,6.7
C215,59.4,213.5,61.4,212.1,63.4z"/>
<path class="st0" d="M107.3,14.6c0,0-10.7-5.9-31.7-4.2S44.5,31.8,9.9,11.7c0,0,24.5,29,67.9,10.9C77.7,22.6,88.5,13.7,107.3,14.6z
"/>
<path class="st0" d="M143,49.5c0,0,3.8,5.5,4.4,11.6c0,0-4.6,5-9.4,6.3c0,0-36.2-22.1-65.5-20.4C72.3,46.9,106.5,34.6,143,49.5z"/>
<path class="st0" d="M117.8,95.9c0,0-17.6-2.6-30.2-16.8c0,0-43,18.5-72.8,0.4C14.8,79.5,31,107.3,117.8,95.9z"/>
<path class="st0" d="M243.1,15.7c-2.1,0-3.8,1.4-3.8,3.1c0,0.6,0.2,1.1,0.6,1.6c-25.1,14-20.4-4.4-19.8-6.6c2-0.1,3.6-1.4,3.6-3.1
c0-1.7-1.7-3.1-3.8-3.1c-2.1,0-3.8,1.4-3.8,3.1c0,1,0.6,1.9,1.6,2.5c-13.6,20.2-18.5,1.6-18.9-0.2c1.6-0.4,2.7-1.6,2.7-3
c0-1.7-1.7-3.1-3.8-3.1c-2.1,0-3.8,1.4-3.8,3.1c0,1.3,1,2.4,2.3,2.9c-2.5,9.1-11.2,7.5-14.6,6.4c1.1-0.5,1.9-1.6,1.9-2.7
c0-1.7-1.7-3.1-3.8-3.1s-3.8,1.4-3.8,3.1s1.7,3.1,3.8,3.1c0.3,0,0.6-0.1,0.9-0.1l4,10.8c14.5-1.2,36.3,10.3,36.3,10.3l19.8-19.7
c0.7,0.4,1.4,0.7,2.3,0.7c2.1,0,3.8-1.4,3.8-3.1C246.9,17.1,245.2,15.7,243.1,15.7z"/>
</g>
</svg>